<svg xmlns="http://www.w3.org/2000/svg" viewBox="0 0 400 400"><path fill="currentColor" d="M179 177c-6.5 2.1-13.3 2.1-20 3.1-6.2 1-33.3 9-38 11.9-6.7 4.2-10.8 14-14.3 21-8.8 17.7-17.5 42-17.7 62-.1 10 .2 14.7 12 15 10 .2 10.1-2.6 16.3-10l14.1-17c2.1-2.5 5.9-7.5 8.6-9 2.4-1.2 5.4-1 8-1h23c3.9 0 10.5 0 13.6 2.6A53.2 53.2 0 0 1 192 273a36 36 0 0 0-20.9 20c-2 5.3-3.2 16.2 2.1 20 3 2 7.3 2 10.8 2a113.2 113.2 0 0 1-43 10h-8c-15.1 0-30-4-44-9.6L74 308c-5-1.6-8.5 1-11.4 5-6.9 9.8 4.7 19 10.8 26 16.3 18.6 42.5 32.1 65.6 40.1 14.4 5 39.8 9.9 55 9.9l15 1 16-1a92 92 0 0 0 19-1.5c3.7-.9 18.8-8.2 23-10.3l42-22.3 35-19.5c5.6-4.1 12.6-16.1 16.1-22.4a219.4 219.4 0 0 0 14.3-182 246.4 246.4 0 0 0-13.4-30.8c-2-3-10.6-9.3-14-12.2l-32-28.2C306.3 52 296 41 288.4 32c-2.6-3.1-9.3-13.3-11.7-14.7-2.9-1.7-15.8-3-19.7-3.4L216 12l-10 1-25 1.8-23 2.6c-18.8 2.8-42 10.8-59 19.4a189 189 0 0 0-31.7 19.7L58.7 75 38 107c-11.6 17.8-22.4 41.5-24 63v7c-.7 5.7-2.3 10.8 3.2 14.9 3 2.1 13.2 5 16.5 3 2.1-1.2 4-4.8 5.4-6.9l8.7-12c11.7-14.8 24.9-27.7 38.2-41 4-4 12.8-13.2 18-14.7 1.9-.4 5-.3 7 0h31c3.1.8 9.9 4.8 13 6.6 2.5 1.4 9.9 5 11 7.3 2 4-6.2 15.1-7.3 19.8-2.1 8.3 13.2 20.7 20.3 23Zm150 26c-1.7.4-3.7 1-5.3 0-1.6-1.2-2.3-5-2.8-7l-5-18c-8.7-28.1-22.8-58.1-43.9-79A124.2 124.2 0 0 0 248 81C204.6 56 149.3 68 107 89.3L79 106l-1-4 17-10.1c9.1-5.1 20.3-10.4 30-14.3 38.2-15.4 80.6-20.1 119-2.7 8.4 3.8 19 11.3 26 17.4 9.7 8.4 19.8 20.8 26.6 31.7 16.7 26.8 23.7 49.2 32.4 79Zm-130-18c5.2-10.6 16.5-20.7 25-29 2.7-2.6 9.6-9.1 13-10 2.7-.8 9.1.6 12 1.2 3.4.7 15 3.6 17.3 5.6 1.5 1.4 2.5 4.3 3.3 6.2.6 1.6 1.8 4.3 2 6 .7 5.5-5.6 12-9 16a59.2 59.2 0 0 1-14.6 12c-2.3.7-9 0-12 0-10.2-.3-28-3.4-37-8Zm21-19a41.8 41.8 0 0 1 23 23l11-8a46.6 46.6 0 0 0-13-21.7c-2.2-2-6-5-9-4.5-3.8.7-9.8 8-12 11.2Zm124-5.6c14.5-1.2 17 18.1 6 21.2-13.7 3.7-22.7-16-6-21.2Zm9.1 32.2c8.3-1 9 7 3.8 8.5-4.4 1.2-9.9-4.3-3.8-8.5ZM227 224l-15-9.5c-19.1-10.2-40.8-12.6-59 1-15.4 11.5-17 20.3-24 26.5-.7-9 6-16 12-22a55.8 55.8 0 0 1 63-14c5.6 2.1 17.8 7.5 21 12.3 1.2 1.7 1.6 3.7 2 5.7Zm99 3c0 10.6-2.7 21-6 31-14 42.6-49.2 72.3-91 86.3-9 3-21.6 7-31 7.7.6-7.2 3.3-6 11-7.9 11.2-2.8 19.4-6 30-10.5 30.4-13.3 57-36.4 71.2-66.6 3.7-7.9 8-20.5 9.5-29 1.1-5.8 0-9.9 6.3-11Zm-120 25c-2.5-3.8-3.4-6.5-7-9.8-7.6-6.8-19.2-8.2-29-8.2 6.8-2.7 23.5-.3 30 3 7.4 3.8 10.4 7.5 6 15Zm26 34c2.4-9 4.9-11.8 5-22 .1-13-2.3-18.1-5-30 12 .3 35 7.4 38.8 20 1 3.3-.5 8.9-1.7 12-6.7 16.7-21 20-37.1 20Zm-56 42.4c17 .2 15.1 23.4 1 25.4-9.3 1.3-15.1-6-12.3-14.8 1.6-5.4 6-9.2 11.3-10.6Zm-40 1c3.7-.3 6.9 0 9.6 2.9 4.5 5 1.7 12.6-4.6 14.3-11.9 3.2-18.3-12.9-5-17.2Z"/></svg>